<?xml version="1.0" encoding="UTF-8"?>
<svg id="logosandtypes_com" data-name="logosandtypes com" xmlns="http://www.w3.org/2000/svg" viewBox="0 0 150 150">
  <defs>
    <style>
      .cls-1 {
        fill: #ff6900;
      }

      .cls-2 {
        fill: none;
      }
    </style>
  </defs>
  <path class="cls-2" d="M0,0H150V150H0V0Z"/>
  <path class="cls-1" d="M72.07,13.07v-.02H31.6c-7.76-.33-14.62,6.76-14.05,14.5,0,0,0,30.79,0,57.67v24.29c0,9.04,0,15.07,0,15.07,0,4.56,1.61,8.01,4.11,10.32,1.18,1.09,2.58,1.96,4.15,2.56,1.76,.69,3.73,1.04,5.81,1.04h41.87c86.5-.43,85.67-127.04-1.42-125.45Zm-22.75,33.07c.34-5.13,5.49-11.77,10.48-13.04-.45,.73,10.58-.88,11.15,3.63,.02,0,4.9,5.51,6.05,6.58,.88,.84,13.57,2.05,15.72,1.75-11.56,15.32-1.61,22.04-2.69,25.82-.31,.38-2.56,.12-2.74-.02-8.84-8.12-40.42-4.31-37.98-24.73Zm58.32,56.17c-2.03,7.55-14.58,14.32-10.21,13.04-2.89,5.52-19.74,9.41-25.4,6.88,4.4-4.01,6.82-8.84,8.06-14.67-5.99-.08-11.38-1.44-17.2-2.83,.33-2,.71-4.83,.8-6.85,15.6,4.14,34.17,2.31,47.85-6.58-3.03,7.62-2.15,8.2-3.9,11.02Z"/>
  <path d="M25.64,105.65l-.56,2.43s-3.56,.66-7.54,1.44v-3.88c3.08-.02,6.34-.09,8.1,0Z"/>
  <path d="M64.67,37.29l-.13,.07c-.48,.16-.88,.54-1.08,1.01l.11,.16c1.3-.24,3,2.68,1.83,3.5-.51,.24-1.15,.09-1.51-.34h-.27c.74,2.57,3.64,5.15,5.42,4.44,3.86-1.74-.93-10.04-4.38-8.84Zm0,0l-.13,.07c-.48,.16-.88,.54-1.08,1.01l.11,.16c1.3-.24,3,2.68,1.83,3.5-.51,.24-1.15,.09-1.51-.34h-.27c.74,2.57,3.64,5.15,5.42,4.44,3.86-1.74-.93-10.04-4.38-8.84Zm39.73,26.06c4.75,.83,4.97,3.2,5.91,4.76,.92,1.49,2.69,2.38,4.44,2.23,3.54,0,5.73-1.83,5.73-8.39,0-14.44-9.16-21.46-18.7-21.46-7.86,0-10.89,1.72-18.32,1.72-5.3,0-9.68-10.76-15.68-12.18-2.66-5.91-8.62-6.58-12.28-3.66-3.34-2.03-8.54-.93-8.76,2.8-3.83-1.19-8.77,.88-6.65,5.91-9.36,.28-11.12,8.56-4.76,9.48-8.19,4.64-4.45,12.63,2.42,10.99,.43,9.2,9.13,32.75-6.68,32.04-4.58-.31-9.12-1.11-13.53-2.37v6.09c4.69,1.17,9.48,1.88,14.31,2.1,23.29,.13,8.52-34.02,10.85-43.99l-.36-.33c-4.31,4.49-7.09,3.3-7.33,1.83-.61-2.89,4.41-6.43,7.33-7.68,0-.18,.13-.38,.2-.58-2.69,.42-5.87,0-5.98-1.83-.13-2.29,4.45-4.33,10.45-3.81l.34-.3c-.46-.12-.92-.27-1.35-.45-1.56-.79-1.83-2.13-1.42-3.08,.88-1.05,2.3-1.63,3.66-1.44,1.83,.04,3.65,.41,5.33,1.12l.46-.18c-.47-.34-.88-.76-1.2-1.25-.46-.62-.34-1.58,.26-2.07,1.58-.88,3.69-.51,4.89,.84,.4,.36,.73,.72,1.04,1.04l.64-.11c-.31-.44-.53-.94-.66-1.47-.09-.32-.05-.67,.12-.96,.15-.3,.43-.53,.74-.63,.89-.25,1.89,.11,2.42,.86,.52,.83,.91,1.74,1.17,2.69-4.24,.49-15.48,3.06-15.48,16.65s10.99,27.18,10.99,47.65c.1,8.64-2.88,17.04-8.43,23.68-4.99,6.42-12.79,12.65-24.76,17.84,3.22,1.49,9.36,.96,12.92,1.04,9.1-5.39,13.86-10.37,17.25-15.08,16,7.66,38.29,6.45,47.1-10.37,5.04-3.14,8.48-8.6,9.16-14.5,2.92-3.59,4.02-8.54,2.91-13.04-.24-.84-.93-.88-2.12-.15-16.6,9.97-31.78,11.54-48.73,6.5-.51-5.42-1.32-10.82-2.4-16.16-.75-4.62,.32-8.05,5.39-8.05,5.51,.13,10.94,1.29,16.02,3.41,5.5,2.48,8.71,7.33,10.99,7.33,.92,0,1.83-.56,1.83-2.5,0-3.95-1.41-10.3-3.15-12.57,3.8-.29,7.63-.29,11.43,0Zm-40.65,41.17c.29-1.88,.48-3.79,.57-5.7,4.12,1.06,8.31,1.75,12.55,2,10.21,.77,20.61-1.24,29.71-5.95,1.47-.73,2.9-1.55,4.3-2.44,.04-.02,.07-.04,.11-.06-3.03,7.62-14.33,12.35-25.31,13.69,0,.52-.14,1.03-.24,1.51,0,.04-.02,.07-.03,.11,8.22-.44,16.03-3.11,19.58-5.49,0,0,0,0,.02,0-2.03,7.49-12.09,10.51-21.24,10.99-.25,.6-.52,1.13-.8,1.67,4.53,.06,9.04-.54,13.39-1.81,.02,0,.04,0,.05-.02-.34,.61-.76,1.21-1.3,1.79-7.9,8.47-25.42,9.39-36.28,4.07,2.44-4.48,4.09-9.34,4.93-14.35Zm25.36-34.65c-.31,.38-.73-.22-.9-.35-8.84-8.12-39.84-3.4-37.4-23.82,.34-5.13,4.17-9.73,9.16-10.99-.45,.73-.79,1.51-1.01,2.35l.9,.24c2.62-4.44,9.18-4.27,9.75,.24,.02,0,5.19,5.3,6.34,6.38,.88,.84-.25,1.06-1.22,.68l-.2,.53c1.08,.86,4.56,1.67,10.67,1.29,1.74-.09,3.76-.16,5.91-.46-2.79,2.94-4.74,6.58-5.65,10.52-.15,.59-.44,1.22-1.64,1.22-11.81,.92-21.74-.47-25.15-6.81-.39-.73-.32-1.31,.33-1.69,.84-.42,1.81-.53,2.71-.29l.24-.52c-1.97-1.4-4.84-1.17-6.56,.54-1,1.4-.89,3.42,.24,4.71l.55-.2c-.08-.34-.12-.7-.11-1.05,.02-.29,.42-.42,.58-.16,4.13,5.98,11.83,8.1,18.88,9.64v-.05c10.04,2.21,13.95,6.98,13.58,8.08Zm-.15-12.39c-.83,.02-1.06-.54-.93-.92,.84-3.29,2.39-6.36,4.53-9,2.22-2.34,4.67-3.08,10.06-3.08,7.47,0,13.7,7.53,13.7,18.07,0,1.56-2.11,1.56-2.78,.13-2.52-4.47-5.97-5.12-11.38-5.5-4-.24-8.82,.11-13.2,.29Zm-23.57-15.45c-.51,.24-1.15,.09-1.51-.34h-.27c.74,2.57,3.64,5.15,5.42,4.44,3.86-1.74-.93-10.04-4.38-8.84l-.13,.07c-.48,.16-.88,.54-1.08,1.01l.11,.16c1.3-.24,3,2.68,1.83,3.5Z"/>
</svg>