<svg width="100" height="41" viewBox="0 0 100 41" fill="none" xmlns="http://www.w3.org/2000/svg">
<path fill-rule="evenodd" clip-rule="evenodd" d="M68.8042 12.2C66.2193 12.2 64.0168 12.6259 62.1543 13.2722L62.5296 17.2745C64.2222 16.6356 66.0139 16.3124 67.7419 16.3124C73.804 16.3124 75.3904 20.1385 75.7728 22.5692H65.6315V26.6817H75.7728C75.702 30.5371 73.2233 33.6875 68.2589 33.6875C67.0054 33.6875 64.8666 33.5333 62.395 32.4612L64.2647 37.3667C65.5607 37.6531 66.8212 37.8 68.0818 37.8C76.2898 37.8 80.9426 32.5787 80.9426 24.6034C80.9426 16.8485 76.0419 12.2 68.8042 12.2ZM87.4792 26.0722H90.5102C93.2438 26.0722 94.8231 27.2912 94.8231 29.8248C94.8231 32.3657 93.2438 33.5774 90.5102 33.5774H87.4792V26.0722ZM82.5856 12.4864V37.5136H91.4096C98.3074 37.5136 100 32.8651 100 30.2213C100 26.9975 98.5128 22.136 91.4096 22.136H87.4792V16.9146H98.0312V12.4864H82.5856ZM46.5599 27.7539L49.9026 17.5242H49.9734L53.5214 27.7539H46.5599ZM47.3531 12.4864L37.7358 37.5136H42.9765L45.009 31.903H54.9732L57.0057 37.5136H62.5225L52.9407 12.4864H47.3531Z" fill="#2F88F0"/>
<path fill-rule="evenodd" clip-rule="evenodd" d="M18.22 26.319L17.0227 27.5376L17.8185 29.4946L20.1427 27.129L18.22 26.319ZM16.579 27.724H14.8816L14.0858 29.681H17.3678L16.579 27.724ZM18.4101 24.1398V25.8602L20.3258 26.6702V23.3297L18.4101 24.1398ZM14.4309 27.5376L13.2336 26.319L11.3179 27.129L13.6421 29.4946L14.4309 27.5376ZM17.8185 20.5054L17.0227 22.4624L18.22 23.681L20.1427 22.871L17.8185 20.5054ZM14.8816 22.2688H16.579L17.3678 20.319H14.0858L14.8816 22.2688ZM13.0505 25.8602V24.1398L11.1348 23.3297V26.6702L13.0505 25.8602ZM13.2336 23.681L14.4309 22.4624L13.6421 20.5054L11.3179 22.871L13.2336 23.681ZM14.5013 19.0358H26.108C26.5095 19.0358 26.9109 19.1935 27.2208 19.509C27.5307 19.8244 27.6856 20.233 27.6856 20.6416C27.6856 21.0502 27.5307 21.466 27.2208 21.7814L29.883 24.491C30.9254 23.4301 31.4465 22.0323 31.4465 20.6416C31.4465 19.2509 30.9254 17.8602 29.883 16.7993C28.8407 15.7384 27.4743 15.2079 26.108 15.2079H18.2622L14.5013 19.0358ZM19.0017 19.8961L27.2067 28.2545C27.4955 28.5412 27.6715 28.9427 27.6715 29.3871C27.6715 29.8315 27.4955 30.233 27.2067 30.5269C26.925 30.8136 26.5306 30.9928 26.0939 30.9928V34.828C27.5659 34.828 28.9041 34.2186 29.8689 33.2366C30.8409 32.2473 31.4325 30.8925 31.4325 29.3871C31.4325 27.8889 30.8338 26.5269 29.8689 25.5376L24.3262 19.8961H19.0017ZM21.5865 23.7455V35.5591C21.5865 35.9677 21.4315 36.3835 21.1217 36.6989C20.8118 37.0072 20.4103 37.1649 20.0089 37.1649C19.6074 37.1649 19.1989 37.0072 18.8961 36.6989L16.2268 39.4086C17.2762 40.4695 18.6426 41 20.0089 41C21.3752 41 22.7415 40.4695 23.7909 39.4086C24.8333 38.3477 25.3544 36.9498 25.3544 35.5591L25.3474 27.5806L21.5865 23.7455ZM20.7413 28.3262L12.5364 36.6846C12.2476 36.9713 11.8532 37.1505 11.4165 37.1505C10.9799 37.1505 10.5925 36.9713 10.3038 36.6846C10.015 36.3907 9.83893 35.9892 9.83893 35.5448H6.07098C6.07098 37.0502 6.66962 38.405 7.64154 39.3943C8.60642 40.3763 9.94457 40.9857 11.4165 40.9857C12.8955 40.9857 14.2267 40.3763 15.1986 39.3943L20.7413 33.7455V28.3262ZM16.9593 30.957H5.3526C4.95116 30.957 4.54267 30.7993 4.23982 30.491C3.92994 30.1756 3.77499 29.767 3.77499 29.3513C3.77499 28.9427 3.92994 28.534 4.23982 28.2186L1.57761 25.509C0.528217 26.5699 0.0070429 27.9606 0.0070429 29.3513C0.0070429 30.7419 0.528217 32.1398 1.57761 33.2007C2.61996 34.2616 3.98628 34.7921 5.3526 34.7921H13.1984L16.9593 30.957ZM12.4378 30.0466L4.23278 21.6953C3.94402 21.4014 3.76795 21 3.76795 20.5556C3.76795 20.1111 3.94402 19.7097 4.23278 19.4229C4.5145 19.129 4.9089 18.9498 5.34556 18.9498V15.1219C3.87359 15.1219 2.53544 15.7312 1.57057 16.7133C0.598646 17.6953 0 19.0573 0 20.5556C0 22.0609 0.598646 23.4158 1.57057 24.405L7.11333 30.0466H12.4378ZM9.87414 26.2473V14.4337C9.87414 14.0251 10.0291 13.6165 10.339 13.3011C10.6418 12.9857 11.0503 12.8351 11.4518 12.828C11.8532 12.828 12.2546 12.9857 12.5645 13.3011L15.2338 10.5914C14.1844 9.53047 12.8181 9 11.4518 9C10.0854 9 8.71911 9.53047 7.66972 10.5914C6.62737 11.6523 6.10619 13.043 6.10619 14.4409V22.4194L9.87414 26.2473ZM10.7193 21.6667L18.9243 13.3154C19.213 13.0215 19.6074 12.8495 20.0441 12.8495C20.4807 12.8495 20.8681 13.0287 21.1569 13.3154C21.4456 13.6093 21.6217 14.0036 21.6217 14.4552H25.3896C25.3896 12.9498 24.784 11.5878 23.8191 10.6057C22.8542 9.62366 21.5161 9.01434 20.0441 9.01434C18.5651 9.01434 17.2269 9.62366 16.2621 10.6057L10.7193 16.2473V21.6667ZM16.6705 27.3082L17.9946 25.9534V24.0394L16.6705 22.6918H14.7901L13.459 24.0394V25.9534L14.7901 27.3082H16.6705ZM13.6562 30.0968L10.7193 27.1147V22.8853L13.6562 19.8961H17.8044L20.7413 22.8853V27.1147L17.8044 30.0968H13.6562Z" fill="#2F88F0"/>
<path fill-rule="evenodd" clip-rule="evenodd" d="M15.1417 10.3791C15.1417 10.3791 16.3957 7.44023 18.5471 5.66078C21.9971 2.80389 27.3413 2.19732 31.2568 5.22924C36.8868 9.59118 36.8279 14.2311 36.0948 20.476C35.9422 21.7785 35.4038 25.1251 35.4038 25.1251L33.2237 24.6932C33.2237 24.6932 33.8964 20.0957 31.8336 17.3691C29.7707 14.6426 15.1417 10.3791 15.1417 10.3791Z" fill="#E11F21"/>
<path opacity="0.15" fill-rule="evenodd" clip-rule="evenodd" d="M32.1114 13.308C33.4697 13.5144 33.2948 9.95689 33.2948 9.95689C33.2948 9.95689 34.543 14.8043 34.6252 17.279C34.7075 19.7537 34.2215 21.8007 34.5851 22.9173C34.7624 23.5288 35.0872 24.0874 35.531 24.5439L35.4014 25.1242L33.2235 24.6931C33.2235 24.6931 33.8738 20.2327 31.9238 17.4884C30.6377 14.7269 26.9194 11.5355 32.1114 13.308Z" fill="#181714"/>
<path opacity="0.15" fill-rule="evenodd" clip-rule="evenodd" d="M33.9515 16.1365C33.8593 14.9644 33.5852 12.1527 33.5852 12.1527C33.5852 12.1527 33.6049 12.8975 33.6134 13.8027C33.6218 14.7079 33.1754 16.4812 33.1754 16.4812C33.1754 16.4812 32.9093 17.5594 32.6569 18.9109C32.932 19.6506 33.1169 20.4206 33.2077 21.2045C33.5371 19.9288 34.0963 17.9611 33.9515 16.1365Z" fill="#181714"/>
<path d="M33.2762 27.6096C34.325 27.9837 35.4733 27.4512 35.8411 26.4203C36.2089 25.3893 35.6569 24.2502 34.6081 23.8761C33.5594 23.5019 32.4111 24.0344 32.0433 25.0654C31.6755 26.0964 32.2275 27.2354 33.2762 27.6096Z" fill="white"/>
<path opacity="0.15" fill-rule="evenodd" clip-rule="evenodd" d="M35.6121 24.6551C35.7869 24.9119 35.8984 25.2065 35.9373 25.5147C35.9762 25.8229 35.9414 26.1359 35.8358 26.4281C35.66 26.875 35.3306 27.2445 34.9069 27.4704C34.4831 27.6963 33.9927 27.7637 33.5237 27.6605C33.0547 27.5573 32.6378 27.2902 32.348 26.9073C32.0582 26.5244 31.9144 26.0507 31.9425 25.5713C32.1848 25.9321 32.5369 26.2052 32.9465 26.3503C33.4444 26.5324 33.9942 26.5095 34.4751 26.2865C34.956 26.0635 35.3287 25.6587 35.5114 25.161C35.567 24.9975 35.6008 24.8275 35.6121 24.6551Z" fill="#181714"/>
<path fill-rule="evenodd" clip-rule="evenodd" d="M14.5373 9.74752C14.5373 9.74752 13.3907 13.5447 13.3821 13.9552C13.3735 14.3658 13.44 15.149 14.7589 14.9301C19.0033 14.2263 24.5252 14.9046 27.7825 18.0597C29.4747 19.6962 30.6111 21.3448 31.144 21.3971C31.6768 21.4493 33.1739 19.775 33.3362 18.73C34.6301 10.5809 15.8204 6.59163 14.5373 9.74752Z" fill="white"/>
<path opacity="0.15" fill-rule="evenodd" clip-rule="evenodd" d="M13.5594 13.1525C14.9442 14.3963 19.1665 12.751 21.2501 12.9719C26.9767 13.5781 28.9739 17.3769 30.7439 18.8428C31.465 19.4387 32.3922 19.3752 33.2383 19.0917C32.8573 20.1192 31.6197 21.4458 31.1429 21.3991C30.6101 21.3468 29.4737 19.6982 27.7814 18.0617C24.5242 14.9066 18.9916 14.2245 14.7579 14.9321C13.439 15.151 13.3718 14.3699 13.3811 13.9572C13.4205 13.6849 13.4801 13.4159 13.5594 13.1525Z" fill="#181714"/>
</svg>
