 <svg  version="1.0" xmlns="http://www.w3.org/2000/svg"  width="300.000000pt" height="300.000000pt" viewBox="0 0 300.000000 300.000000"  preserveAspectRatio="xMidYMid meet">  <g transform="translate(0.000000,300.000000) scale(0.050000,-0.050000)" fill="#c7c7c7" stroke="none"> <path d="M2650 5977 c-2078 -230 -3291 -2567 -2285 -4402 1145 -2086 4125 -2086 5270 0 1157 2108 -579 4668 -2985 4402z m-950 -2018 l0 -502 86 71 c356 291 867 213 1038 -158 45 -98 46 -116 52 -845 l7 -745 -251 0 -250 0 -6 685 c-7 762 -6 757 -145 823 -173 82 -380 5 -478 -178 -41 -76 -43 -111 -49 -705 l-7 -625 -248 0 -249 0 0 1340 0 1340 250 0 250 0 0 -501z m1920 -1 l0 -501 83 71 c278 238 749 228 954 -21 126 -153 130 -182 138 -992 l8 -735 -251 0 -250 0 -6 676 c-5 612 -9 681 -42 731 -157 240 -543 134 -612 -167 -12 -51 -21 -343 -22 -665 l0 -575 -250 0 -250 0 0 1340 0 1340 250 0 250 0 0 -502z"/> </g> </svg> 